<svg xmlns="http://www.w3.org/2000/svg" xmlns:xlink="http://www.w3.org/1999/xlink" contentStyleType="text/css" data-diagram-type="CLASS" height="1941px" preserveAspectRatio="none" style="width:1834px;height:1941px;background:#FFFFFF;" version="1.1" viewBox="0 0 1834 1941" width="1834px" zoomAndPan="magnify"><?plantuml 1.2026.4beta2?><defs/><g><!--cluster co--><g class="cluster" data-qualified-name="co" data-source-line="6" id="ent0004"><rect fill="none" height="1920.03" rx="2.5" ry="2.5" style="stroke:#000000;stroke-width:1.5;" width="1782" x="38.3586" y="7"/><text fill="#000000" font-family="sans-serif" font-size="14" font-weight="700" lengthAdjust="spacing" textLength="17.917" x="920.4001" y="21.9951">co</text></g><!--cluster edu--><g class="cluster" data-qualified-name="co.edu" data-source-line="6" id="ent0005"><rect fill="none" height="1853.03" rx="2.5" ry="2.5" style="stroke:#000000;stroke-width:1.5;" width="1734" x="62.3586" y="50"/><text fill="#000000" font-family="sans-serif" font-size="14" font-weight="700" lengthAdjust="spacing" textLength="29.4834" x="914.6169" y="64.9951">edu</text></g><!--cluster udistrital--><g class="cluster" data-qualified-name="co.edu.udistrital" data-source-line="6" id="ent0006"><rect fill="none" height="1786.03" rx="2.5" ry="2.5" style="stroke:#000000;stroke-width:1.5;" width="1686" x="86.3586" y="93"/><text fill="#000000" font-family="sans-serif" font-size="14" font-weight="700" lengthAdjust="spacing" textLength="72.4541" x="893.1316" y="107.9951">udistrital</text></g><!--cluster view--><g class="cluster" data-qualified-name="co.edu.udistrital.view" data-source-line="5" id="ent0002"><rect fill="none" height="493.71" rx="2.5" ry="2.5" style="stroke:#000000;stroke-width:1.5;" width="678" x="1070.3586" y="301.74"/><text fill="#000000" font-family="sans-serif" font-size="14" font-weight="700" lengthAdjust="spacing" textLength="36.3535" x="1391.1819" y="316.7351">view</text></g><!--cluster controller--><g class="cluster" data-qualified-name="co.edu.udistrital.controller" data-source-line="24" id="ent0008"><rect fill="none" height="435.86" rx="2.5" ry="2.5" style="stroke:#000000;stroke-width:1.5;" width="398" x="606.3586" y="136"/><text fill="#000000" font-family="sans-serif" font-size="14" font-weight="700" lengthAdjust="spacing" textLength="77.0957" x="766.8108" y="150.9951">controller</text></g><!--cluster model--><g class="cluster" data-qualified-name="co.edu.udistrital.model" data-source-line="46" id="ent0013"><rect fill="none" height="1234.17" rx="2.5" ry="2.5" style="stroke:#000000;stroke-width:1.5;" width="936" x="110.3586" y="620.86"/><text fill="#000000" font-family="sans-serif" font-size="14" font-weight="700" lengthAdjust="spacing" textLength="48.5215" x="554.0979" y="635.8551">model</text></g><!--cluster entities--><g class="cluster" data-qualified-name="co.edu.udistrital.model.entities" data-source-line="45" id="ent0011"><rect fill="none" height="213.08" rx="2.5" ry="2.5" style="stroke:#000000;stroke-width:1.5;" width="288" x="251.3586" y="1617.95"/><text fill="#000000" font-family="sans-serif" font-size="14" font-weight="700" lengthAdjust="spacing" textLength="60.2725" x="365.2224" y="1632.9451">entities</text></g><!--cluster structures--><g class="cluster" data-qualified-name="co.edu.udistrital.model.structures" data-source-line="57" id="ent0014"><rect fill="none" height="905.09" rx="2.5" ry="2.5" style="stroke:#000000;stroke-width:1.5;" width="617" x="134.3586" y="663.86"/><text fill="#000000" font-family="sans-serif" font-size="14" font-weight="700" lengthAdjust="spacing" textLength="81.5869" x="402.0652" y="678.8551">structures</text></g><!--cluster sort--><g class="cluster" data-qualified-name="co.edu.udistrital.model.sort" data-source-line="114" id="ent0019"><rect fill="none" height="115.3" rx="2.5" ry="2.5" style="stroke:#000000;stroke-width:1.5;" width="236" x="786.3586" y="945.68"/><text fill="#000000" font-family="sans-serif" font-size="14" font-weight="700" lengthAdjust="spacing" textLength="31.5479" x="888.5847" y="960.6751">sort</text></g><!--class ConsoleView--><g class="entity" data-qualified-name="co.edu.udistrital.view.ConsoleView" data-source-line="6" id="ent0003"><rect fill="#F1F1F1" height="194.6719" rx="2.5" ry="2.5" style="stroke:#181818;stroke-width:0.5;" width="301.7275" x="1086.4886" y="336.74"/><ellipse cx="1188.5492" cy="352.74" fill="#C2C2C2" rx="11" ry="11" style="stroke:#181818;stroke-width:1;"/><path d="M1191.5179,358.3806 Q1190.9398,358.6775 1190.2992,358.8181 Q1189.6586,358.9744 1188.9554,358.9744 Q1186.4554,358.9744 1185.1273,357.3338 Q1183.8148,355.6775 1183.8148,352.5525 Q1183.8148,349.4275 1185.1273,347.7713 Q1186.4554,346.115 1188.9554,346.115 Q1189.6586,346.115 1190.2992,346.2713 Q1190.9554,346.4275 1191.5179,346.7244 L1191.5179,349.4431 Q1190.8929,348.865 1190.2992,348.5994 Q1189.7054,348.3181 1189.0804,348.3181 Q1187.7367,348.3181 1187.0492,349.3963 Q1186.3617,350.4588 1186.3617,352.5525 Q1186.3617,354.6463 1187.0492,355.7244 Q1187.7367,356.7869 1189.0804,356.7869 Q1189.7054,356.7869 1190.2992,356.5213 Q1190.8929,356.24 1191.5179,355.6619 L1191.5179,358.3806 Z " fill="#000000"/><text fill="#000000" font-family="sans-serif" font-size="14" lengthAdjust="spacing" textLength="89.1064" x="1209.0492" y="357.5867">ConsoleView</text><line style="stroke:#181818;stroke-width:0.5;" x1="1087.4886" x2="1387.2162" y1="368.74" y2="368.74"/><text fill="#000000" font-family="sans-serif" font-size="14" lengthAdjust="spacing" textLength="183.0186" x="1092.4886" y="385.7351">-controller: TaskController</text><text fill="#000000" font-family="sans-serif" font-size="14" lengthAdjust="spacing" textLength="86.4883" x="1092.4886" y="402.032">-sc: Scanner</text><text fill="#000000" font-family="sans-serif" font-size="14" lengthAdjust="spacing" textLength="109.5186" x="1092.4886" y="418.3289">-ih: InputHelper</text><line style="stroke:#181818;stroke-width:0.5;" x1="1087.4886" x2="1387.2162" y1="425.6306" y2="425.6306"/><text fill="#000000" font-family="sans-serif" font-size="14" lengthAdjust="spacing" textLength="289.7275" x="1092.4886" y="442.6257">+ConsoleView(controller: TaskController)</text><text fill="#000000" font-family="sans-serif" font-size="14" lengthAdjust="spacing" textLength="132.4941" x="1092.4886" y="458.9226">+startMenu(): void</text><text fill="#000000" font-family="sans-serif" font-size="14" lengthAdjust="spacing" textLength="177.748" x="1092.4886" y="475.2195">+ExecuteAddTask(): void</text><text fill="#000000" font-family="sans-serif" font-size="14" lengthAdjust="spacing" textLength="207.8398" x="1092.4886" y="491.5164">+ExecuteRemoveTask(): void</text><text fill="#000000" font-family="sans-serif" font-size="14" lengthAdjust="spacing" textLength="195.4668" x="1092.4886" y="507.8132">+ExecuteShowTasks(): void</text><text fill="#000000" font-family="sans-serif" font-size="14" lengthAdjust="spacing" textLength="195.2344" x="1092.4886" y="524.1101">+ExecuteScheduling(): void</text></g><!--class InputHelper--><g class="entity" data-qualified-name="co.edu.udistrital.view.InputHelper" data-source-line="18" id="ent0007"><rect fill="#F1F1F1" height="80.5938" rx="2.5" ry="2.5" style="stroke:#181818;stroke-width:0.5;" width="646.2246" x="1086.2486" y="698.86"/><ellipse cx="1363.8424" cy="714.86" fill="#C2C2C2" rx="11" ry="11" style="stroke:#181818;stroke-width:1;"/><path d="M1366.8111,720.5006 Q1366.233,720.7975 1365.5924,720.9381 Q1364.9518,721.0944 1364.2486,721.0944 Q1361.7486,721.0944 1360.4205,719.4537 Q1359.108,717.7975 1359.108,714.6725 Q1359.108,711.5475 1360.4205,709.8912 Q1361.7486,708.235 1364.2486,708.235 Q1364.9518,708.235 1365.5924,708.3912 Q1366.2486,708.5475 1366.8111,708.8444 L1366.8111,711.5631 Q1366.1861,710.985 1365.5924,710.7194 Q1364.9986,710.4381 1364.3736,710.4381 Q1363.0299,710.4381 1362.3424,711.5162 Q1361.6549,712.5787 1361.6549,714.6725 Q1361.6549,716.7662 1362.3424,717.8444 Q1363.0299,718.9069 1364.3736,718.9069 Q1364.9986,718.9069 1365.5924,718.6412 Q1366.1861,718.36 1366.8111,717.7819 L1366.8111,720.5006 Z " fill="#000000"/><text fill="#000000" font-family="sans-serif" font-size="14" lengthAdjust="spacing" textLength="82.5371" x="1384.3424" y="719.7067">InputHelper</text><line style="stroke:#181818;stroke-width:0.5;" x1="1087.2486" x2="1731.4732" y1="730.86" y2="730.86"/><line style="stroke:#181818;stroke-width:0.5;" x1="1087.2486" x2="1731.4732" y1="738.86" y2="738.86"/><text fill="#000000" font-family="sans-serif" font-size="14" lengthAdjust="spacing" textLength="546.5879" x="1092.2486" y="755.8551">+requestPositiveInteger(sc: Scanner, cot1: int, cot2: int, message: String): int</text><text fill="#000000" font-family="sans-serif" font-size="14" lengthAdjust="spacing" textLength="634.2246" x="1092.2486" y="772.152">+requestPositiveDouble(sc: Scanner, cot1: double, cot2: double, message: String): double</text></g><!--class Main--><g class="entity" data-qualified-name="co.edu.udistrital.controller.Main" data-source-line="25" id="ent0009"><rect fill="#F1F1F1" height="64.2969" rx="2.5" ry="2.5" style="stroke:#181818;stroke-width:0.5;" width="200.8154" x="766.9486" y="171"/><ellipse cx="846.3959" cy="187" fill="#C2C2C2" rx="11" ry="11" style="stroke:#181818;stroke-width:1;"/><path d="M849.3647,192.6406 Q848.7865,192.9375 848.1459,193.0781 Q847.5053,193.2344 846.8022,193.2344 Q844.3022,193.2344 842.974,191.5938 Q841.6615,189.9375 841.6615,186.8125 Q841.6615,183.6875 842.974,182.0313 Q844.3022,180.375 846.8022,180.375 Q847.5053,180.375 848.1459,180.5313 Q848.8022,180.6875 849.3647,180.9844 L849.3647,183.7031 Q848.7397,183.125 848.1459,182.8594 Q847.5522,182.5781 846.9272,182.5781 Q845.5834,182.5781 844.8959,183.6563 Q844.2084,184.7188 844.2084,186.8125 Q844.2084,188.9063 844.8959,189.9844 Q845.5834,191.0469 846.9272,191.0469 Q847.5522,191.0469 848.1459,190.7813 Q848.7397,190.5 849.3647,189.9219 L849.3647,192.6406 Z " fill="#000000"/><text fill="#000000" font-family="sans-serif" font-size="14" lengthAdjust="spacing" textLength="33.4209" x="866.8959" y="191.8467">Main</text><line style="stroke:#181818;stroke-width:0.5;" x1="767.9486" x2="966.7641" y1="203" y2="203"/><line style="stroke:#181818;stroke-width:0.5;" x1="767.9486" x2="966.7641" y1="211" y2="211"/><text fill="#000000" font-family="sans-serif" font-size="14" lengthAdjust="spacing" text-decoration="underline" textLength="188.8154" x="772.9486" y="227.9951">+main(args: String[]): void</text></g><!--class TaskController--><g class="entity" data-qualified-name="co.edu.udistrital.controller.TaskController" data-source-line="29" id="ent0010"><rect fill="#F1F1F1" height="243.5625" rx="2.5" ry="2.5" style="stroke:#181818;stroke-width:0.5;" width="365.1377" x="622.7886" y="312.3"/><ellipse cx="750.2549" cy="328.3" fill="#C2C2C2" rx="11" ry="11" style="stroke:#181818;stroke-width:1;"/><path d="M753.2237,333.9406 Q752.6456,334.2375 752.0049,334.3781 Q751.3643,334.5344 750.6612,334.5344 Q748.1612,334.5344 746.8331,332.8937 Q745.5206,331.2375 745.5206,328.1125 Q745.5206,324.9875 746.8331,323.3312 Q748.1612,321.675 750.6612,321.675 Q751.3643,321.675 752.0049,321.8312 Q752.6612,321.9875 753.2237,322.2844 L753.2237,325.0031 Q752.5987,324.425 752.0049,324.1594 Q751.4112,323.8781 750.7862,323.8781 Q749.4424,323.8781 748.7549,324.9562 Q748.0674,326.0187 748.0674,328.1125 Q748.0674,330.2062 748.7549,331.2844 Q749.4424,332.3469 750.7862,332.3469 Q751.4112,332.3469 752.0049,332.0812 Q752.5987,331.8 753.2237,331.2219 L753.2237,333.9406 Z " fill="#000000"/><text fill="#000000" font-family="sans-serif" font-size="14" lengthAdjust="spacing" textLength="101.7051" x="770.7549" y="333.1467">TaskController</text><line style="stroke:#181818;stroke-width:0.5;" x1="623.7886" x2="986.9263" y1="344.3" y2="344.3"/><text fill="#000000" font-family="sans-serif" font-size="14" lengthAdjust="spacing" textLength="142.2422" x="628.7886" y="361.2951">-taskList: DoubleList</text><text fill="#000000" font-family="sans-serif" font-size="14" lengthAdjust="spacing" textLength="152.8037" x="628.7886" y="377.592">-scheduler: Scheduler</text><text fill="#000000" font-family="sans-serif" font-size="14" lengthAdjust="spacing" textLength="245.9365" x="628.7886" y="393.8889">-lastCalculatedProcessors: Queue[]</text><line style="stroke:#181818;stroke-width:0.5;" x1="623.7886" x2="986.9263" y1="401.1906" y2="401.1906"/><text fill="#000000" font-family="sans-serif" font-size="14" lengthAdjust="spacing" textLength="124.3594" x="628.7886" y="418.1857">+TaskController()</text><text fill="#000000" font-family="sans-serif" font-size="14" lengthAdjust="spacing" textLength="353.1377" x="628.7886" y="434.4826">+createTask(time: double, name: String): boolean</text><text fill="#000000" font-family="sans-serif" font-size="14" lengthAdjust="spacing" textLength="237.5557" x="628.7886" y="450.7795">+isRepeated(task: Task): boolean</text><text fill="#000000" font-family="sans-serif" font-size="14" lengthAdjust="spacing" textLength="255.083" x="628.7886" y="467.0764">+deleteTask(name: String): boolean</text><text fill="#000000" font-family="sans-serif" font-size="14" lengthAdjust="spacing" textLength="184.2285" x="628.7886" y="483.3732">+getTasksAsText(): String</text><text fill="#000000" font-family="sans-serif" font-size="14" lengthAdjust="spacing" textLength="339.1582" x="628.7886" y="499.6701">+processScheduling(numProcessors: int): String</text><text fill="#000000" font-family="sans-serif" font-size="14" lengthAdjust="spacing" textLength="195.5283" x="628.7886" y="515.967">+getAverageTime(): double</text><text fill="#000000" font-family="sans-serif" font-size="14" lengthAdjust="spacing" textLength="198.3037" x="628.7886" y="532.2639">+taskListIsEmpty(): boolean</text><text fill="#000000" font-family="sans-serif" font-size="14" lengthAdjust="spacing" textLength="158.8057" x="628.7886" y="548.5607">+getTaskListSize(): int</text></g><!--class Task--><g class="entity" data-qualified-name="co.edu.udistrital.model.entities.Task" data-source-line="46" id="ent0012"><rect fill="#F1F1F1" height="162.0781" rx="2.5" ry="2.5" style="stroke:#181818;stroke-width:0.5;" width="255.25" x="267.7286" y="1652.95"/><ellipse cx="374.8375" cy="1668.95" fill="#C2C2C2" rx="11" ry="11" style="stroke:#181818;stroke-width:1;"/><path d="M377.8063,1674.5906 Q377.2281,1674.8875 376.5875,1675.0281 Q375.9469,1675.1844 375.2438,1675.1844 Q372.7438,1675.1844 371.4156,1673.5438 Q370.1031,1671.8875 370.1031,1668.7625 Q370.1031,1665.6375 371.4156,1663.9813 Q372.7438,1662.325 375.2438,1662.325 Q375.9469,1662.325 376.5875,1662.4813 Q377.2438,1662.6375 377.8063,1662.9344 L377.8063,1665.6531 Q377.1813,1665.075 376.5875,1664.8094 Q375.9938,1664.5281 375.3688,1664.5281 Q374.025,1664.5281 373.3375,1665.6063 Q372.65,1666.6688 372.65,1668.7625 Q372.65,1670.8563 373.3375,1671.9344 Q374.025,1672.9969 375.3688,1672.9969 Q375.9938,1672.9969 376.5875,1672.7313 Q377.1813,1672.45 377.8063,1671.8719 L377.8063,1674.5906 Z " fill="#000000"/><text fill="#000000" font-family="sans-serif" font-size="14" lengthAdjust="spacing" textLength="32.5322" x="395.3375" y="1673.7967">Task</text><line style="stroke:#181818;stroke-width:0.5;" x1="268.7286" x2="521.9786" y1="1684.95" y2="1684.95"/><text fill="#000000" font-family="sans-serif" font-size="14" lengthAdjust="spacing" textLength="93.5635" x="273.7286" y="1701.9451">-time: double</text><text fill="#000000" font-family="sans-serif" font-size="14" lengthAdjust="spacing" textLength="95.7031" x="273.7286" y="1718.242">-name: String</text><line style="stroke:#181818;stroke-width:0.5;" x1="268.7286" x2="521.9786" y1="1725.5438" y2="1725.5438"/><text fill="#000000" font-family="sans-serif" font-size="14" lengthAdjust="spacing" textLength="243.25" x="273.7286" y="1742.5389">+Task(time: double, name: String)</text><text fill="#000000" font-family="sans-serif" font-size="14" lengthAdjust="spacing" textLength="137.2178" x="273.7286" y="1758.8357">+getTime(): double</text><text fill="#000000" font-family="sans-serif" font-size="14" lengthAdjust="spacing" textLength="137.8945" x="273.7286" y="1775.1326">+getName(): String</text><text fill="#000000" font-family="sans-serif" font-size="14" lengthAdjust="spacing" textLength="206.0488" x="273.7286" y="1791.4295">+setTime(time: double): void</text><text fill="#000000" font-family="sans-serif" font-size="14" lengthAdjust="spacing" textLength="214.7988" x="273.7286" y="1807.7264">+setName(name: String): void</text></g><!--class Node--><g class="entity" data-qualified-name="co.edu.udistrital.model.structures.Node" data-source-line="58" id="ent0015"><rect fill="#F1F1F1" height="308.75" rx="2.5" ry="2.5" style="stroke:#181818;stroke-width:0.5;" width="345.0605" x="222.8286" y="1244.2"/><ellipse cx="372.8399" cy="1260.2" fill="#C2C2C2" rx="11" ry="11" style="stroke:#181818;stroke-width:1;"/><path d="M375.8086,1265.8406 Q375.2305,1266.1375 374.5899,1266.2781 Q373.9492,1266.4344 373.2461,1266.4344 Q370.7461,1266.4344 369.418,1264.7938 Q368.1055,1263.1375 368.1055,1260.0125 Q368.1055,1256.8875 369.418,1255.2313 Q370.7461,1253.575 373.2461,1253.575 Q373.9492,1253.575 374.5899,1253.7313 Q375.2461,1253.8875 375.8086,1254.1844 L375.8086,1256.9031 Q375.1836,1256.325 374.5899,1256.0594 Q373.9961,1255.7781 373.3711,1255.7781 Q372.0274,1255.7781 371.3399,1256.8563 Q370.6524,1257.9188 370.6524,1260.0125 Q370.6524,1262.1063 371.3399,1263.1844 Q372.0274,1264.2469 373.3711,1264.2469 Q373.9961,1264.2469 374.5899,1263.9813 Q375.1836,1263.7 375.8086,1263.1219 L375.8086,1265.8406 Z " fill="#000000"/><text fill="#000000" font-family="sans-serif" font-size="14" lengthAdjust="spacing" textLength="36.5381" x="393.3399" y="1265.0467">Node</text><line style="stroke:#181818;stroke-width:0.5;" x1="223.8286" x2="566.8892" y1="1276.2" y2="1276.2"/><text fill="#000000" font-family="sans-serif" font-size="14" lengthAdjust="spacing" textLength="78.2852" x="228.8286" y="1293.1951">-data: Task</text><text fill="#000000" font-family="sans-serif" font-size="14" lengthAdjust="spacing" textLength="82.0176" x="228.8286" y="1309.492">-next: Node</text><text fill="#000000" font-family="sans-serif" font-size="14" lengthAdjust="spacing" textLength="110.9199" x="228.8286" y="1325.7889">-previous: Node</text><line style="stroke:#181818;stroke-width:0.5;" x1="223.8286" x2="566.8892" y1="1333.0906" y2="1333.0906"/><text fill="#000000" font-family="sans-serif" font-size="14" lengthAdjust="spacing" textLength="132.4258" x="228.8286" y="1350.0857">+Node(data: Task)</text><text fill="#000000" font-family="sans-serif" font-size="14" lengthAdjust="spacing" textLength="333.0605" x="228.8286" y="1366.3826">+Node(data: Task, next: Node, previous: Node)</text><text fill="#000000" font-family="sans-serif" font-size="14" lengthAdjust="spacing" textLength="120.7705" x="228.8286" y="1382.6795">+getData(): Task</text><text fill="#000000" font-family="sans-serif" font-size="14" lengthAdjust="spacing" textLength="189.5059" x="228.8286" y="1398.9764">+setData(data: Task): void</text><text fill="#000000" font-family="sans-serif" font-size="14" lengthAdjust="spacing" textLength="124.209" x="228.8286" y="1415.2732">+getNext(): Node</text><text fill="#000000" font-family="sans-serif" font-size="14" lengthAdjust="spacing" textLength="151.0674" x="228.8286" y="1431.5701">+getPrevious(): Node</text><text fill="#000000" font-family="sans-serif" font-size="14" lengthAdjust="spacing" textLength="180.4893" x="228.8286" y="1447.867">+getPreviousData(): Task</text><text fill="#000000" font-family="sans-serif" font-size="14" lengthAdjust="spacing" textLength="153.6309" x="228.8286" y="1464.1639">+getNextData(): Task</text><text fill="#000000" font-family="sans-serif" font-size="14" lengthAdjust="spacing" textLength="248.4316" x="228.8286" y="1480.4607">+setPrevious(previous: Node): void</text><text fill="#000000" font-family="sans-serif" font-size="14" lengthAdjust="spacing" textLength="192.6709" x="228.8286" y="1496.7576">+setNext(next: Node): void</text><text fill="#000000" font-family="sans-serif" font-size="14" lengthAdjust="spacing" textLength="222.3662" x="228.8286" y="1513.0545">+setNextData(data: Task): void</text><text fill="#000000" font-family="sans-serif" font-size="14" lengthAdjust="spacing" textLength="249.2246" x="228.8286" y="1529.3514">+setPreviousData(data: Task): void</text><text fill="#000000" font-family="sans-serif" font-size="14" lengthAdjust="spacing" textLength="129.4385" x="228.8286" y="1545.6482">+toString(): String</text></g><!--class DoubleList--><g class="entity" data-qualified-name="co.edu.udistrital.model.structures.DoubleList" data-source-line="77" id="ent0016"><rect fill="#F1F1F1" height="308.75" rx="2.5" ry="2.5" style="stroke:#181818;stroke-width:0.5;" width="303.1084" x="391.7986" y="858.45"/><ellipse cx="502.0623" cy="874.45" fill="#C2C2C2" rx="11" ry="11" style="stroke:#181818;stroke-width:1;"/><path d="M505.0311,880.0906 Q504.4529,880.3875 503.8123,880.5281 Q503.1717,880.6844 502.4686,880.6844 Q499.9686,880.6844 498.6404,879.0438 Q497.3279,877.3875 497.3279,874.2625 Q497.3279,871.1375 498.6404,869.4813 Q499.9686,867.825 502.4686,867.825 Q503.1717,867.825 503.8123,867.9813 Q504.4686,868.1375 505.0311,868.4344 L505.0311,871.1531 Q504.4061,870.575 503.8123,870.3094 Q503.2186,870.0281 502.5936,870.0281 Q501.2498,870.0281 500.5623,871.1063 Q499.8748,872.1688 499.8748,874.2625 Q499.8748,876.3563 500.5623,877.4344 Q501.2498,878.4969 502.5936,878.4969 Q503.2186,878.4969 503.8123,878.2313 Q504.4061,877.95 505.0311,877.3719 L505.0311,880.0906 Z " fill="#000000"/><text fill="#000000" font-family="sans-serif" font-size="14" lengthAdjust="spacing" textLength="74.0811" x="522.5623" y="879.2967">DoubleList</text><line style="stroke:#181818;stroke-width:0.5;" x1="392.7986" x2="693.907" y1="890.45" y2="890.45"/><text fill="#000000" font-family="sans-serif" font-size="14" lengthAdjust="spacing" textLength="85.709" x="397.7986" y="907.4451">-head: Node</text><text fill="#000000" font-family="sans-serif" font-size="14" lengthAdjust="spacing" textLength="72.6045" x="397.7986" y="923.742">-tail: Node</text><text fill="#000000" font-family="sans-serif" font-size="14" lengthAdjust="spacing" textLength="59.6162" x="397.7986" y="940.0389">-size: int</text><line style="stroke:#181818;stroke-width:0.5;" x1="392.7986" x2="693.907" y1="947.3406" y2="947.3406"/><text fill="#000000" font-family="sans-serif" font-size="14" lengthAdjust="spacing" textLength="96.7354" x="397.7986" y="964.3357">+DoubleList()</text><text fill="#000000" font-family="sans-serif" font-size="14" lengthAdjust="spacing" textLength="161.0342" x="397.7986" y="980.6326">+add(data: Task): void</text><text fill="#000000" font-family="sans-serif" font-size="14" lengthAdjust="spacing" textLength="291.1084" x="397.7986" y="996.9295">+removeByName(name: String): boolean</text><text fill="#000000" font-family="sans-serif" font-size="14" lengthAdjust="spacing" textLength="127.9551" x="397.7986" y="1013.2264">+getHead(): Node</text><text fill="#000000" font-family="sans-serif" font-size="14" lengthAdjust="spacing" textLength="214.4707" x="397.7986" y="1029.5232">+getNextNodeToHead(): Node</text><text fill="#000000" font-family="sans-serif" font-size="14" lengthAdjust="spacing" textLength="200.1084" x="397.7986" y="1045.8201">+setHead(head: Node): void</text><text fill="#000000" font-family="sans-serif" font-size="14" lengthAdjust="spacing" textLength="116.2588" x="397.7986" y="1062.117">+getTail(): Node</text><text fill="#000000" font-family="sans-serif" font-size="14" lengthAdjust="spacing" textLength="175.3076" x="397.7986" y="1078.4139">+setTail(tail: Node): void</text><text fill="#000000" font-family="sans-serif" font-size="14" lengthAdjust="spacing" textLength="101.8008" x="397.7986" y="1094.7107">+getSize(): int</text><text fill="#000000" font-family="sans-serif" font-size="14" lengthAdjust="spacing" textLength="166.1475" x="397.7986" y="1111.0076">+setSize(size: int): void</text><text fill="#000000" font-family="sans-serif" font-size="14" lengthAdjust="spacing" textLength="144.1221" x="397.7986" y="1127.3045">+isEmpty(): boolean</text><text fill="#000000" font-family="sans-serif" font-size="14" lengthAdjust="spacing" textLength="202.6309" x="397.7986" y="1143.6014">+isIn(name: String): boolean</text><text fill="#000000" font-family="sans-serif" font-size="14" lengthAdjust="spacing" textLength="208.9199" x="397.7986" y="1159.8982">+getNodeAt(index: int): Node</text></g><!--class Queue--><g class="entity" data-qualified-name="co.edu.udistrital.model.structures.Queue" data-source-line="96" id="ent0017"><rect fill="#F1F1F1" height="194.6719" rx="2.5" ry="2.5" style="stroke:#181818;stroke-width:0.5;" width="205.9629" x="150.3786" y="915.49"/><ellipse cx="226.114" cy="931.49" fill="#C2C2C2" rx="11" ry="11" style="stroke:#181818;stroke-width:1;"/><path d="M229.0827,937.1306 Q228.5046,937.4275 227.864,937.5681 Q227.2234,937.7244 226.5202,937.7244 Q224.0202,937.7244 222.6921,936.0838 Q221.3796,934.4275 221.3796,931.3025 Q221.3796,928.1775 222.6921,926.5213 Q224.0202,924.865 226.5202,924.865 Q227.2234,924.865 227.864,925.0213 Q228.5202,925.1775 229.0827,925.4744 L229.0827,928.1931 Q228.4577,927.615 227.864,927.3494 Q227.2702,927.0681 226.6452,927.0681 Q225.3015,927.0681 224.614,928.1463 Q223.9265,929.2088 223.9265,931.3025 Q223.9265,933.3963 224.614,934.4744 Q225.3015,935.5369 226.6452,935.5369 Q227.2702,935.5369 227.864,935.2713 Q228.4577,934.99 229.0827,934.4119 L229.0827,937.1306 Z " fill="#000000"/><text fill="#000000" font-family="sans-serif" font-size="14" lengthAdjust="spacing" textLength="45.9922" x="246.614" y="936.3367">Queue</text><line style="stroke:#181818;stroke-width:0.5;" x1="151.3786" x2="355.3415" y1="947.49" y2="947.49"/><text fill="#000000" font-family="sans-serif" font-size="14" lengthAdjust="spacing" textLength="85.709" x="156.3786" y="964.4851">-head: Node</text><text fill="#000000" font-family="sans-serif" font-size="14" lengthAdjust="spacing" textLength="72.6045" x="156.3786" y="980.782">-tail: Node</text><text fill="#000000" font-family="sans-serif" font-size="14" lengthAdjust="spacing" textLength="128.6387" x="156.3786" y="997.0789">-totalTime: double</text><line style="stroke:#181818;stroke-width:0.5;" x1="151.3786" x2="355.3415" y1="1004.3806" y2="1004.3806"/><text fill="#000000" font-family="sans-serif" font-size="14" lengthAdjust="spacing" textLength="68.6465" x="156.3786" y="1021.3757">+Queue()</text><text fill="#000000" font-family="sans-serif" font-size="14" lengthAdjust="spacing" textLength="125.7129" x="156.3786" y="1037.6726">+dequeue(): Task</text><text fill="#000000" font-family="sans-serif" font-size="14" lengthAdjust="spacing" textLength="193.9629" x="156.3786" y="1053.9695">+enqueue(task: Task): void</text><text fill="#000000" font-family="sans-serif" font-size="14" lengthAdjust="spacing" textLength="172.293" x="156.3786" y="1070.2664">+getTotalTime(): double</text><text fill="#000000" font-family="sans-serif" font-size="14" lengthAdjust="spacing" textLength="127.9551" x="156.3786" y="1086.5632">+getHead(): Node</text><text fill="#000000" font-family="sans-serif" font-size="14" lengthAdjust="spacing" textLength="144.1221" x="156.3786" y="1102.8601">+isEmpty(): boolean</text></g><!--class Scheduler--><g class="entity" data-qualified-name="co.edu.udistrital.model.structures.Scheduler" data-source-line="108" id="ent0018"><rect fill="#F1F1F1" height="80.5938" rx="2.5" ry="2.5" style="stroke:#181818;stroke-width:0.5;" width="497.8096" x="237.4486" y="698.86"/><ellipse cx="447.059" cy="714.86" fill="#C2C2C2" rx="11" ry="11" style="stroke:#181818;stroke-width:1;"/><path d="M450.0277,720.5006 Q449.4496,720.7975 448.809,720.9381 Q448.1684,721.0944 447.4652,721.0944 Q444.9652,721.0944 443.6371,719.4537 Q442.3246,717.7975 442.3246,714.6725 Q442.3246,711.5475 443.6371,709.8912 Q444.9652,708.235 447.4652,708.235 Q448.1684,708.235 448.809,708.3912 Q449.4652,708.5475 450.0277,708.8444 L450.0277,711.5631 Q449.4027,710.985 448.809,710.7194 Q448.2152,710.4381 447.5902,710.4381 Q446.2465,710.4381 445.559,711.5162 Q444.8715,712.5787 444.8715,714.6725 Q444.8715,716.7662 445.559,717.8444 Q446.2465,718.9069 447.5902,718.9069 Q448.2152,718.9069 448.809,718.6412 Q449.4027,718.36 450.0277,717.7819 L450.0277,720.5006 Z " fill="#000000"/><text fill="#000000" font-family="sans-serif" font-size="14" lengthAdjust="spacing" textLength="70.0889" x="467.559" y="719.7067">Scheduler</text><line style="stroke:#181818;stroke-width:0.5;" x1="238.4486" x2="734.2582" y1="730.86" y2="730.86"/><line style="stroke:#181818;stroke-width:0.5;" x1="238.4486" x2="734.2582" y1="738.86" y2="738.86"/><text fill="#000000" font-family="sans-serif" font-size="14" lengthAdjust="spacing" textLength="398.2686" x="243.4486" y="755.8551">+schedule(list: DoubleList, numProcessors: int): Queue[]</text><text fill="#000000" font-family="sans-serif" font-size="14" lengthAdjust="spacing" textLength="485.8096" x="243.4486" y="772.152">+calculateAverageTime(processors: Queue[], totalTasks: int): double</text></g><!--class BubbleSort--><g class="entity" data-qualified-name="co.edu.udistrital.model.sort.BubbleSort" data-source-line="115" id="ent0020"><rect fill="#F1F1F1" height="64.2969" rx="2.5" ry="2.5" style="stroke:#181818;stroke-width:0.5;" width="204.3633" x="802.1786" y="980.68"/><ellipse cx="861.3847" cy="996.68" fill="#C2C2C2" rx="11" ry="11" style="stroke:#181818;stroke-width:1;"/><path d="M864.3534,1002.3206 Q863.7753,1002.6175 863.1347,1002.7581 Q862.4941,1002.9144 861.7909,1002.9144 Q859.2909,1002.9144 857.9628,1001.2738 Q856.6503,999.6175 856.6503,996.4925 Q856.6503,993.3675 857.9628,991.7113 Q859.2909,990.055 861.7909,990.055 Q862.4941,990.055 863.1347,990.2113 Q863.7909,990.3675 864.3534,990.6644 L864.3534,993.3831 Q863.7284,992.805 863.1347,992.5394 Q862.5409,992.2581 861.9159,992.2581 Q860.5722,992.2581 859.8847,993.3363 Q859.1972,994.3988 859.1972,996.4925 Q859.1972,998.5863 859.8847,999.6644 Q860.5722,1000.7269 861.9159,1000.7269 Q862.5409,1000.7269 863.1347,1000.4613 Q863.7284,1000.18 864.3534,999.6019 L864.3534,1002.3206 Z " fill="#000000"/><text fill="#000000" font-family="sans-serif" font-size="14" lengthAdjust="spacing" textLength="77.4512" x="881.8847" y="1001.5267">BubbleSort</text><line style="stroke:#181818;stroke-width:0.5;" x1="803.1786" x2="1005.5419" y1="1012.68" y2="1012.68"/><line style="stroke:#181818;stroke-width:0.5;" x1="803.1786" x2="1005.5419" y1="1020.68" y2="1020.68"/><text fill="#000000" font-family="sans-serif" font-size="14" lengthAdjust="spacing" text-decoration="underline" textLength="192.3633" x="808.1786" y="1037.6751">+sort(list: DoubleList): void</text></g><!--link Main to TaskController--><g class="link" data-entity-1="ent0009" data-entity-2="ent0010" data-link-type="dependency" data-source-line="123" id="lnk21"><path codeLine="123" d="M858.8686,235.5 C853.3786,255.77 847.417,277.7786 839.737,306.1386" fill="none" id="Main-to-TaskController" style="stroke:#181818;stroke-width:1;stroke-dasharray:7,7;"/><polygon fill="#181818" points="838.1686,311.93,844.3821,304.2885,839.4756,307.1038,836.6602,302.1973,838.1686,311.93" style="stroke:#181818;stroke-width:1;"/><text fill="#000000" font-family="sans-serif" font-size="13" lengthAdjust="spacing" textLength="92.3774" x="851.3586" y="278.3669">&#171;instantiates&#187;</text></g><!--link Main to ConsoleView--><g class="link" data-entity-1="ent0009" data-entity-2="ent0003" data-link-type="dependency" data-source-line="124" id="lnk22"><path codeLine="124" d="M918.4186,235.74 C961.8286,262.6 1021.3564,299.433 1081.1064,336.403" fill="none" id="Main-to-ConsoleView" style="stroke:#181818;stroke-width:1;stroke-dasharray:7,7;"/><polygon fill="#181818" points="1086.2086,339.56,1080.6599,331.423,1081.9567,336.9292,1076.4505,338.226,1086.2086,339.56" style="stroke:#181818;stroke-width:1;"/><text fill="#000000" font-family="sans-serif" font-size="13" lengthAdjust="spacing" textLength="92.3774" x="987.3586" y="278.3669">&#171;instantiates&#187;</text></g><!--link ConsoleView to TaskController--><g class="link" data-entity-1="ent0003" data-entity-2="ent0010" data-link-type="dependency" data-source-line="127" id="lnk23"><path codeLine="127" d="M1086.2986,434.08 C1054.6386,434.08 1026.9286,434.08 994.2486,434.08" fill="none" id="ConsoleView-to-TaskController" style="stroke:#181818;stroke-width:1;"/><polygon fill="#181818" points="988.2486,434.08,997.2486,438.08,993.2486,434.08,997.2486,430.08,988.2486,434.08" style="stroke:#181818;stroke-width:1;"/><text fill="#000000" font-family="sans-serif" font-size="13" lengthAdjust="spacing" textLength="22.9785" x="1026.2086" y="427.1469">usa</text><text fill="#000000" font-family="sans-serif" font-size="13" lengthAdjust="spacing" textLength="71.1255" x="996.0993" y="446.4188">- controller</text></g><!--link ConsoleView to InputHelper--><g class="link" data-entity-1="ent0003" data-entity-2="ent0007" data-link-type="dependency" data-source-line="128" id="lnk24"><path codeLine="128" d="M1292.2486,531.81 C1324.2986,588.28 1360.0574,651.2816 1383.9474,693.3816" fill="none" id="ConsoleView-to-InputHelper" style="stroke:#181818;stroke-width:1;"/><polygon fill="#181818" points="1386.9086,698.6,1385.9457,688.7983,1384.441,694.2514,1378.9879,692.7466,1386.9086,698.6" style="stroke:#181818;stroke-width:1;"/><text fill="#000000" font-family="sans-serif" font-size="13" lengthAdjust="spacing" textLength="22.9785" x="1334.3586" y="600.9269">usa</text><text fill="#000000" font-family="sans-serif" font-size="13" lengthAdjust="spacing" textLength="20.6743" x="1361.5896" y="687.7185">- ih</text></g><!--link TaskController to DoubleList--><g class="link" data-entity-1="ent0010" data-entity-2="ent0016" data-link-type="dependency" data-source-line="131" id="lnk25"><path codeLine="131" d="M810.1586,556.22 C808.4086,637.64 796.1586,744.92 751.3586,828.45 C737.0186,855.18 721.3729,875.599 699.5429,897.619" fill="none" id="TaskController-to-DoubleList" style="stroke:#181818;stroke-width:1;"/><polygon fill="#181818" points="695.3186,901.88,704.4956,898.3047,698.8388,898.3292,698.8143,892.6724,695.3186,901.88" style="stroke:#181818;stroke-width:1;"/><text fill="#000000" font-family="sans-serif" font-size="13" lengthAdjust="spacing" textLength="56.2847" x="807.3586" y="743.7269">contiene</text><text fill="#000000" font-family="sans-serif" font-size="13" lengthAdjust="spacing" textLength="58.9126" x="702.9724" y="893.9528">- taskList</text></g><!--link TaskController to Scheduler--><g class="link" data-entity-1="ent0010" data-entity-2="ent0018" data-link-type="dependency" data-source-line="132" id="lnk26"><path codeLine="132" d="M677.9086,556.17 C624.4486,606.95 570.3483,658.3572 532.2483,694.5572" fill="none" id="TaskController-to-Scheduler" style="stroke:#181818;stroke-width:1;"/><polygon fill="#181818" points="527.8986,698.69,537.1784,695.3906,531.5234,695.246,531.668,689.591,527.8986,698.69" style="stroke:#181818;stroke-width:1;"/><text fill="#000000" font-family="sans-serif" font-size="13" lengthAdjust="spacing" textLength="56.2847" x="641.3586" y="600.9269">contiene</text><text fill="#000000" font-family="sans-serif" font-size="13" lengthAdjust="spacing" textLength="72.4268" x="456.8524" y="687.8234">- scheduler</text></g><!--link TaskController to Queue--><g class="link" data-entity-1="ent0010" data-entity-2="ent0017" data-link-type="dependency" data-source-line="133" id="lnk27"><path codeLine="133" d="M622.4386,460.14 C450.7286,487.85 212.0086,538.63 155.3586,612.86 C88.3886,700.6 135.2171,822.8432 185.0871,909.9332" fill="none" id="TaskController-to-Queue" style="stroke:#181818;stroke-width:1;"/><polygon fill="#181818" points="188.0686,915.14,187.0675,905.3422,185.584,910.801,180.1252,909.3175,188.0686,915.14" style="stroke:#181818;stroke-width:1;"/><text fill="#000000" font-family="sans-serif" font-size="13" lengthAdjust="spacing" textLength="63.5591" x="156.3586" y="743.7269">almacena</text><text fill="#000000" font-family="sans-serif" font-size="13" lengthAdjust="spacing" textLength="171.1392" x="6" y="904.4872">- lastCalculatedProcessors</text></g><!--link DoubleList to Node--><g class="link" data-entity-1="ent0016" data-entity-2="ent0015" data-link-type="dependency" data-source-line="136" id="lnk28"><path codeLine="136" d="M484.0086,1167.7 C474.3186,1192.83 466.4361,1213.2613 456.7561,1238.3813" fill="none" id="DoubleList-to-Node" style="stroke:#181818;stroke-width:1;"/><polygon fill="#181818" points="454.5986,1243.98,461.5673,1237.0203,456.3965,1239.3144,454.1024,1234.1437,454.5986,1243.98" style="stroke:#181818;stroke-width:1;"/><text fill="#000000" font-family="sans-serif" font-size="13" lengthAdjust="spacing" textLength="97.7729" x="470.3586" y="1210.2669">compuesta por</text><text fill="#000000" font-family="sans-serif" font-size="13" lengthAdjust="spacing" textLength="65.9458" x="390.9167" y="1233.1986">- head/tail</text></g><!--link Queue to Node--><g class="link" data-entity-1="ent0017" data-entity-2="ent0015" data-link-type="dependency" data-source-line="137" id="lnk29"><path codeLine="137" d="M289.0086,1110.17 C303.9986,1150.69 319.7366,1193.2128 336.4566,1238.4028" fill="none" id="Queue-to-Node" style="stroke:#181818;stroke-width:1;"/><polygon fill="#181818" points="338.5386,1244.03,339.1671,1234.2012,336.8036,1239.3407,331.6642,1236.9772,338.5386,1244.03" style="stroke:#181818;stroke-width:1;"/><text fill="#000000" font-family="sans-serif" font-size="13" lengthAdjust="spacing" textLength="97.7729" x="325.3586" y="1210.2669">compuesta por</text><text fill="#000000" font-family="sans-serif" font-size="13" lengthAdjust="spacing" textLength="65.9458" x="269.2351" y="1233.2511">- head/tail</text></g><!--link Node to Task--><g class="link" data-entity-1="ent0015" data-entity-2="ent0012" data-link-type="dependency" data-source-line="138" id="lnk30"><path codeLine="138" d="M395.3586,1553.11 C395.3586,1587.46 395.3586,1616.57 395.3586,1646.54" fill="none" id="Node-to-Task" style="stroke:#181818;stroke-width:1;"/><polygon fill="#181818" points="395.3586,1652.54,399.3586,1643.54,395.3586,1647.54,391.3586,1643.54,395.3586,1652.54" style="stroke:#181818;stroke-width:1;"/><text fill="#000000" font-family="sans-serif" font-size="13" lengthAdjust="spacing" textLength="63.5591" x="396.3586" y="1598.0169">almacena</text><text fill="#000000" font-family="sans-serif" font-size="13" lengthAdjust="spacing" textLength="38.105" x="355.7308" y="1641.9685">- data</text></g><!--link Scheduler to BubbleSort--><g class="link" data-entity-1="ent0018" data-entity-2="ent0020" data-link-type="dependency" data-source-line="141" id="lnk31"><path codeLine="141" d="M599.4586,779.95 C648.3586,799.79 704.8886,826.44 751.3586,858.45 C802.1486,893.45 846.7968,941.9581 875.0968,975.6081" fill="none" id="Scheduler-to-BubbleSort" style="stroke:#181818;stroke-width:1;stroke-dasharray:7,7;"/><polygon fill="#181818" points="878.9586,980.2,876.2271,970.7375,875.7404,976.3734,870.1045,975.8867,878.9586,980.2" style="stroke:#181818;stroke-width:1;"/><text fill="#000000" font-family="sans-serif" font-size="13" lengthAdjust="spacing" textLength="45.6904" x="697.3586" y="824.5169">&#171;uses&#187;</text></g><!--link Scheduler to DoubleList--><g class="link" data-entity-1="ent0018" data-entity-2="ent0016" data-link-type="dependency" data-source-line="142" id="lnk32"><path codeLine="142" d="M494.7086,779.95 C499.1886,801.32 503.8082,823.3075 509.8782,852.2775" fill="none" id="Scheduler-to-DoubleList" style="stroke:#181818;stroke-width:1;stroke-dasharray:7,7;"/><polygon fill="#181818" points="511.1086,858.15,513.178,848.521,510.0833,853.2563,505.348,850.1616,511.1086,858.15" style="stroke:#181818;stroke-width:1;"/><text fill="#000000" font-family="sans-serif" font-size="13" lengthAdjust="spacing" textLength="52.2412" x="505.3586" y="824.5169">&#171;reads&#187;</text></g><!--link Scheduler to Queue--><g class="link" data-entity-1="ent0018" data-entity-2="ent0017" data-link-type="dependency" data-source-line="143" id="lnk33"><path codeLine="143" d="M447.0786,779.84 C425.1586,802.42 397.6686,831.5 374.3586,858.45 C358.8286,876.41 346.4926,891.3214 331.3126,910.3314" fill="none" id="Scheduler-to-Queue" style="stroke:#181818;stroke-width:1;stroke-dasharray:7,7;"/><polygon fill="#181818" points="327.5686,915.02,336.3103,910.4831,330.6886,911.1129,330.0589,905.4912,327.5686,915.02" style="stroke:#181818;stroke-width:1;"/><text fill="#000000" font-family="sans-serif" font-size="13" lengthAdjust="spacing" textLength="64.2319" x="417.3586" y="824.5169">&#171;creates&#187;</text></g><!--link BubbleSort to DoubleList--><g class="link" data-entity-1="ent0020" data-entity-2="ent0016" data-link-type="dependency" data-source-line="144" id="lnk34"><path codeLine="144" d="M801.6886,1012.83 C768.6286,1012.83 737.2486,1012.83 701.4086,1012.83" fill="none" id="BubbleSort-to-DoubleList" style="stroke:#181818;stroke-width:1;stroke-dasharray:7,7;"/><polygon fill="#181818" points="695.4086,1012.83,704.4086,1016.83,700.4086,1012.83,704.4086,1008.83,695.4086,1012.83" style="stroke:#181818;stroke-width:1;"/><text fill="#000000" font-family="sans-serif" font-size="13" lengthAdjust="spacing" textLength="71.3477" x="713.0386" y="1005.8969">&#171;modifies&#187;</text></g><?plantuml-src dLVRRkCs47tNLn1-gOB4xkLHC09u7GDh8EkciL6WMEm3BKrj8XAfyk9DTf6lwYVqnpga98lKnKdh9vbpvPd3uL0zCLvIIGkIvbIfXTQIxOs6TIhubdq3ybEapYg5u28zIb40qTA09obf-aGFiDKlEH09gQRya4CKrUjaaeePP6PcCgOmWgRvxCJWwuHyZmZ-N6oo55o977v7GRrkVrE2gMWfyXnaGdPKFItF_pqbbIPacrBEWrLsJCYQbqP_XBpq9DT-i7Wym9LdeJIL-XDm4rybv2HOvibMpv0YQeiii_RZ2ezGY1DSrjaUnLUheIwef4T4CsVy4EYyHXwQthOzDA-nEdyPKFf1AARP2TPSmm5axE5tWuZhdnF2k7QVlzIV1IY5nKGzB24_NBdbSSztmknp67ASEKdZk_dNTrz9wgszNcHJMyAGKvyeuy7slsCPDKjVIO6IcCg3QW9-_ZAAPKYAW9mQHVUOHaAg_ThlW9QkKfPPs-RJ4wDtlQHvQdAg8NkG8aKGXCISVZDWuFCNB_CmYTYdPYe1xHsjD2kWnPJJmWTqBv3ob7kMJ3r2QOspsEwaul-WPWOvr37Uz7e0xHYyK3jurfQZbRAdKbPxzPZCJU43WDmQiaFNYnD8fC4ETng7BAbKcfAirQeezKjyAKMhP_jSxB7vBQuL0h6O0TT8Sr0XtwpFa1zUFRnb7y9EZI-LiBE1CGHGjg6Lh1T2rNP-b7wZKRM7Jgczu_4UZF2VIRMHNPGsA0rGogYc5VTyZ90xYTFr5ai99oQCwWYktT-uzNCrBhhnFDzq77OGlaCZYsAGcKF7IRnmFGHj3MhoTp95oKCTzB9q97hjUJoti_VEtWQhR7DiyHZLUNE_gfFt9LqjAaPr21hqtBQT1amv0irwfD2KvRr5XSUwUqMrJeF-IRFiOhxINTiVNeQEn61h-OXP3jVMOcbNTs94HzNMxKO7kRN3BGzREqcBoA1rj-MTZPtWZ5pVbbtggKoj-RlWiNajTCnu1izDeFD60XQuQ_1_4a0Bx4IxeVvxNVaDE93PwSN0m8a2Nac22tAW8asuiPOyKl0HI0COphD3CCiqmqMSTmOGx713bsb_faYRsSE_Kyl-679JWsalzSRRVvZEwjj0I1tU0n_C7briSNruHhCMlStrhg4Vo7Gw9O-h-yLo_UjcjIL_aBlLmsfpjzeirukjbLebDmeopb96S_QD4iYnHIWD1OsSQ3QxxGvw2PdF6STiyAv7aDJjRQlglrO6z33WFIKd343nNE6eMnWCJUrZnaQkvrMQ2KbUY54kdMFrIF4zJwUtPE8_WIRz7D5wo8OT9y4Ze5B4l5PXU9eLY0gMokNWIYMYJf3QPJDPJVpkd3Xl33YCM9rdu8d7upUjnaRZITqJ4aBpWgR0gpqremPLU9BjF24KsLC5aPTfxTbsa1zjnvXKWuXDfIZjquMIKiYeylzEPRTOwzehfAfF9xlxV_u-sEAZAiqF0Wz58LJKWc7vv9q5IoUZ78r2dG3r-Hod_golrC0pdrVF0glXEH_mWpLdVpAh-2y0?></g></svg>